<svg xmlns="http://www.w3.org/2000/svg" width="51" height="51" viewBox="0 0 51 51"><defs><style>.a{fill:#5cae7e;stroke-miterlimit:10;}.a,.c{stroke:#fff;}.b,.c{fill:#fff;}</style></defs><g transform="translate(-13.501 -14.5)"><g transform="translate(14 15)"><rect class="a" width="50" height="50" rx="5" transform="translate(0.001)"/><path class="b" d="M552.138,154.439a2.131,2.131,0,1,0-2.131-2.131h0A2.136,2.136,0,0,0,552.138,154.439Z" transform="translate(-535.52 -131.171)"/><path class="b" d="M556.964,152.308a2.13,2.13,0,1,0,2.134-2.131A2.131,2.131,0,0,0,556.964,152.308Z" transform="translate(-525.233 -131.171)"/><path class="b" d="M558,148.7a8.543,8.543,0,0,0-8.549,0,1.065,1.065,0,0,0,1.066,1.845,6.407,6.407,0,0,1,6.418,0A1.065,1.065,0,0,0,558,148.7Z" transform="translate(-537.118 -135.047)"/><path class="b" d="M564.419,150.69a1.065,1.065,0,0,0,.534-1.987,8.543,8.543,0,0,0-8.549,0,1.065,1.065,0,0,0,1.066,1.845,6.418,6.418,0,0,1,6.418,0A1.068,1.068,0,0,0,564.419,150.69Z" transform="translate(-526.804 -135.047)"/><path class="c" d="M0,0A33.31,33.31,0,0,0,11.045,2.411,26.525,26.525,0,0,0,21.3,0" transform="translate(14.592 33.535)"/></g></g></svg>