<svg xmlns="http://www.w3.org/2000/svg" width="51" height="51" viewBox="0 0 51 51"><defs><style>.a{fill:#be381e;stroke-miterlimit:10;}.a,.c{stroke:#fff;}.b,.c{fill:#fff;}</style></defs><g transform="translate(0.499 -16.5)"><g transform="translate(0 17)"><rect class="a" width="50" height="50" rx="5" transform="translate(0.001)"/><path class="b" d="M552.138,154.44a2.131,2.131,0,1,0-2.131-2.131h0A2.136,2.136,0,0,0,552.138,154.44Z" transform="translate(-535.688 -131.391)"/><path class="b" d="M556.964,152.308a2.13,2.13,0,1,0,2.134-2.131A2.131,2.131,0,0,0,556.964,152.308Z" transform="translate(-525.601 -131.391)"/><path class="b" d="M558,148.7a8.543,8.543,0,0,0-8.55,0,1.065,1.065,0,0,0,1.066,1.845,6.407,6.407,0,0,1,6.418,0A1.065,1.065,0,0,0,558,148.7Z" transform="translate(-537.273 -135.189)"/><path class="b" d="M564.42,150.69a1.065,1.065,0,0,0,.534-1.987,8.543,8.543,0,0,0-8.55,0,1.065,1.065,0,0,0,1.066,1.845,6.419,6.419,0,0,1,6.418,0A1.068,1.068,0,0,0,564.42,150.69Z" transform="translate(-527.186 -135.189)"/><path class="c" d="M0,0H21.3" transform="translate(14.322 33.162)"/></g></g></svg>