<svg xmlns="http://www.w3.org/2000/svg" width="51" height="51" viewBox="0 0 51 51"><defs><style>.a{fill:none;stroke:#1e1e1e;}.b{fill:#f7dd00;stroke:#fff;stroke-miterlimit:10;}.c{fill:#1e1e1e;}</style></defs><g transform="translate(0.279 -15.5)"><path class="a" transform="translate(25.221 56.836)"/><g transform="translate(0.221 16)"><rect class="b" width="50" height="50" rx="5" transform="translate(0 0)"/><path class="c" d="M552.083,154.328a2.076,2.076,0,1,0-2.076-2.076h0A2.08,2.08,0,0,0,552.083,154.328Z" transform="translate(-535.486 -131.124)"/><path class="c" d="M556.964,152.253a2.074,2.074,0,1,0,2.078-2.076A2.075,2.075,0,0,0,556.964,152.253Z" transform="translate(-525.158 -131.124)"/><path class="c" d="M557.759,148.674a8.32,8.32,0,0,0-8.327,0,1.037,1.037,0,0,0,1.038,1.8,6.24,6.24,0,0,1,6.251,0,1.037,1.037,0,0,0,1.038-1.8Z" transform="translate(-537.046 -135.025)"/><path class="c" d="M564.2,150.609a1.037,1.037,0,0,0,.52-1.935,8.32,8.32,0,0,0-8.327,0,1.037,1.037,0,0,0,1.038,1.8,6.251,6.251,0,0,1,6.251,0A1.04,1.04,0,0,0,564.2,150.609Z" transform="translate(-526.625 -135.025)"/><path class="a" d="M0,0H21.3" transform="translate(14.349 34.386)"/></g></g></svg>